<svg width="86" height="75" viewBox="0 0 86 75" fill="none" xmlns="http://www.w3.org/2000/svg">
<path d="M39.5 0H37.5C16.7893 0 0 16.7893 0 37.5C0 58.2107 16.7893 75 37.5 75H39.5C60.2107 75 77 58.2107 77 37.5C77 16.7893 60.2107 0 39.5 0Z" fill="#0E1116"/>
<g clip-path="url(#clip0_156_38)">
<g clip-path="url(#clip1_156_38)">
<g clip-path="url(#clip2_156_38)">
<g clip-path="url(#clip3_156_38)">
<g clip-path="url(#clip4_156_38)">
<g clip-path="url(#clip5_156_38)">
<g clip-path="url(#clip6_156_38)">
<g clip-path="url(#clip7_156_38)">
<g clip-path="url(#clip8_156_38)">
<path d="M23.3322 45.5055V29.5323H26.6809L32.6817 35.359L38.6825 29.5323H42.0312V45.5055H38.6825V34.0196L32.6817 39.6076L26.6809 34.0196V45.5055H23.3322ZM51.8826 45.5055L44.5968 29.5323H48.2483L52.7306 39.8421L53.7646 42.3368L54.578 39.8421L56.2264 36.0832L53.2584 29.5323H56.7023L57.9137 32.6508L59.0472 29.5323H62.4868L59.5188 36.0832L61.2018 39.9258L62.2142 42.3368L62.9973 39.8839L67.4968 29.5323H71.1483L63.8626 45.5055H60.5442L59.0775 42.3368L57.8834 39.2602L56.6893 42.3368L55.201 45.5055H51.8826Z" fill="#E8AEB7"/>
</g>
</g>
</g>
</g>
</g>
</g>
<path d="M8.55217 37.5189C8.55217 24.5989 19.378 14.125 32.7321 14.125C42.4403 14.125 50.8123 19.6604 54.6599 27.6469H53.8355C50.0421 20.0702 42.0177 14.8452 32.7321 14.8452C19.789 14.8452 9.29654 24.9966 9.29654 37.5189C9.29654 50.0413 19.789 60.1927 32.7321 60.1927C42.0177 60.1927 50.0421 54.9678 53.8355 47.3909H54.6599C50.8121 55.3774 42.4403 60.9129 32.7321 60.9129C19.378 60.9129 8.55217 50.439 8.55217 37.5189Z" fill="#54588C"/>
</g>
</g>
</g>
<defs>
<clipPath id="clip0_156_38">
<rect width="77.5199" height="46.75" fill="white" transform="translate(8.48011 14.1439)"/>
</clipPath>
<clipPath id="clip1_156_38">
<rect width="77.3758" height="46.7879" fill="white" transform="translate(8.55217 14.125)"/>
</clipPath>
<clipPath id="clip2_156_38">
<rect width="77.3758" height="46.7879" fill="white" transform="translate(8.55217 14.125)"/>
</clipPath>
<clipPath id="clip3_156_38">
<rect width="47.8182" height="15.9731" fill="white" transform="translate(23.3309 29.5323)"/>
</clipPath>
<clipPath id="clip4_156_38">
<rect width="47.8182" height="15.9731" fill="white" transform="translate(23.3309 29.5323)"/>
</clipPath>
<clipPath id="clip5_156_38">
<rect width="47.8182" height="15.9731" fill="white" transform="translate(23.3309 29.5323)"/>
</clipPath>
<clipPath id="clip6_156_38">
<rect width="47.8182" height="15.9731" fill="white" transform="translate(23.3309 29.5323)"/>
</clipPath>
<clipPath id="clip7_156_38">
<rect width="47.8182" height="15.9731" fill="white" transform="translate(23.3309 29.5323)"/>
</clipPath>
<clipPath id="clip8_156_38">
<rect width="47.8182" height="15.9731" fill="white" transform="translate(23.3309 29.5323)"/>
</clipPath>
</defs>
</svg>
