<svg width="288" height="260" viewBox="0 0 288 260" fill="none" xmlns="http://www.w3.org/2000/svg">
<path d="M141.645 228.769C121.274 214.323 107.161 205.494 83.5176 199.794C59.8739 194.094 26.3298 191.677 11.218 176.327C-4.108 161.5 -0.632956 133.585 4.04392 106.466C8.72081 79.3479 14.7542 53.3957 31.8299 39.2953C48.7509 24.8261 76.3454 22.3634 100.549 16.9853C124.228 11.3931 144.517 2.88542 166.328 1.1128C188.508 -0.814504 212.212 3.9932 222.064 20.2478C231.916 36.5024 227.704 64.7274 240.186 87.253C253.191 109.993 282.677 127.557 286.842 145.763C291.006 163.968 270.218 182.662 254.177 205.437C237.613 227.998 225.951 255.009 207.067 258.59C187.814 262.326 161.862 242.847 141.645 228.769Z" fill="url(#paint0_linear_11_142)"/>
<defs>
<linearGradient id="paint0_linear_11_142" x1="210.059" y1="-38.2203" x2="62.2243" y2="315.287" gradientUnits="userSpaceOnUse">
<stop offset="0.270833" stop-color="#E0D14A"/>
<stop offset="0.96875" stop-color="#1B9AAA"/>
</linearGradient>
</defs>
</svg>
