<svg width="100" height="93" viewBox="0 0 100 93" fill="none" xmlns="http://www.w3.org/2000/svg">
<path d="M50.5312 53.3695L35.4062 61.8955C32.8906 63.3092 32.4062 65.854 34.3125 67.6701C36.3281 69.6058 40.25 69.9865 42.9531 68.5183L58.4688 60.1228C59.5625 59.5356 61.125 59.6661 61.9844 60.4273C62.8438 61.1886 62.6406 62.2761 61.5469 62.8742L58.2812 64.636L85.9688 82.384H92.5C96.6406 82.384 100 80.0458 100 77.164V63.244C100 60.3621 96.6406 58.024 92.5 58.024H80.625H80H79.8906L79.2812 57.7521L67.9375 52.6952C65.5469 51.6295 62.75 51.064 59.9062 51.064C56.5 51.064 53.1875 51.8796 50.5312 53.3695ZM54.0938 66.898L46.0156 71.2697C41.0938 73.945 33.9531 73.249 30.2656 69.7255C26.7969 66.4086 27.6719 61.7758 32.25 59.1985L45.25 51.8796C43.4375 51.3467 41.4844 51.0748 39.5 51.0748C36.5625 51.064 33.7031 51.673 31.25 52.804L20 58.024H7.5C3.35938 58.024 0 60.3621 0 63.244V77.164C0 80.0458 3.35938 82.384 7.5 82.384H24.4062L38.6875 91.4537C41.75 93.4003 46.4844 93.2481 49.2812 91.1166C50.1406 90.4532 50.7188 89.6811 51.0156 88.8763L53.6719 90.5728C56.7188 92.5195 61.4688 92.3781 64.2656 90.2575C64.9688 89.7246 65.4844 89.1047 65.8125 88.4631C68.8438 89.8768 72.9688 89.5832 75.5156 87.6475C78.3125 85.5268 78.1094 82.2208 75.0625 80.2742L54.0938 66.898Z" fill="#E8AEB7"/>
<path d="M28.6875 6.25C26.0996 6.25 24 8.34961 24 10.9375C24 12.4121 24.6934 13.7988 25.875 14.6875L47.125 30.625C48.2383 31.4551 49.7617 31.4551 50.875 30.625L72.125 14.6875C73.3066 13.7988 74 12.4121 74 10.9375C74 8.34961 71.9004 6.25 69.3125 6.25H28.6875ZM24 17.1875V37.5C24 40.9473 26.8027 43.75 30.25 43.75H67.75C71.1973 43.75 74 40.9473 74 37.5V17.1875L52.75 33.125C50.5234 34.7949 47.4766 34.7949 45.25 33.125L24 17.1875Z" fill="#E8AEB7"/>
</svg>
